<?xml version="1.0" encoding="utf-8"?>
<!-- Generator: Adobe Illustrator 25.0.0, SVG Export Plug-In . SVG Version: 6.00 Build 0)  -->
<svg version="1.1" id="图层_1" xmlns="http://www.w3.org/2000/svg" xmlns:xlink="http://www.w3.org/1999/xlink" x="0px" y="0px"
	 viewBox="0 0 200 200" style="enable-background:new 0 0 200 200;" xml:space="preserve">
<style type="text/css">
	.st0{fill:url(#SVGID_1_);}
	.st1{fill:#FEFEFE;}
	.st2{fill:#FFD72F;}
</style>
<linearGradient id="SVGID_1_" gradientUnits="userSpaceOnUse" x1="14.6575" y1="14.6552" x2="185.3553" y2="185.353">
	<stop  offset="0" style="stop-color:#64A4FF"/>
	<stop  offset="1" style="stop-color:#BD34FE"/>
</linearGradient>
<path class="st0" d="M150,200H50.01c-27.61,0-50-22.39-50-50V50.01c0-27.61,22.39-50,50-50H150c27.61,0,50,22.39,50,50V150
	C200,177.61,177.61,200,150,200z"/>
<path class="st1" d="M86.15,121.17c0-16.1,0.02-32.2-0.04-48.3c-0.01-1.59,0.44-1.94,1.98-1.94c24.51,0.05,49.02,0.05,73.53,0.01
	c1.45,0,1.91,0.35,1.9,1.86c-0.07,8.61-0.08,17.23,0,25.84c0.02,1.62-0.49,1.93-2,1.93c-15.59-0.05-31.18-0.03-46.77-0.03
	c-2.11,0-2.12,0-2.12,2.08c0,17.33,0.02,34.66-0.03,52c0,1.53,0.36,2.01,1.96,2c15.69-0.06,31.38-0.02,47.07-0.07
	c1.48,0,1.89,0.41,1.88,1.89c-0.07,8.41-0.07,16.82,0,25.23c0.01,1.47-0.54,1.86-1.87,1.86c-20.46-0.02-40.92-0.02-61.38,0
	c-0.84,0-1.48-0.31-2.05-0.86c-2.78-2.65-5.12-5.67-7.53-8.64c-1-1.23-2.17-2.32-3.33-3.41c-0.89-0.83-1.22-1.76-1.22-2.99
	C86.16,153.47,86.15,137.32,86.15,121.17z"/>
<path class="st2" d="M86.17,39.78c0-7.79,0.04-15.58-0.03-23.37c-0.01-1.43,0.31-1.94,1.85-1.93c7.63,0.08,15.27,0.06,22.9,0.01
	c1.33-0.01,1.76,0.33,1.76,1.71c-0.04,15.78-0.04,31.56,0,47.35c0,1.18-0.3,1.62-1.55,1.61c-7.79-0.05-15.58-0.06-23.37,0
	c-1.36,0.01-1.59-0.51-1.59-1.71C86.19,55.56,86.17,47.67,86.17,39.78z"/>
<path class="st2" d="M58.7,100.52c-6.87,0-13.74-0.02-20.61,0.02c-1.18,0.01-1.61-0.3-1.61-1.54c0.05-8.82,0.04-17.64,0.01-26.45
	c0-1.18,0.33-1.59,1.56-1.58C51.8,71,65.54,71,79.28,70.95c1.41-0.01,1.7,0.47,1.69,1.77c-0.05,8.66-0.06,17.33,0,25.99
	c0.01,1.41-0.39,1.84-1.81,1.83C72.34,100.48,65.52,100.52,58.7,100.52z"/>
</svg>
